<svg width="618" height="570" viewBox="0 0 618 570" fill="none" xmlns="http://www.w3.org/2000/svg">
<path d="M0 316.928C0 323.924 2.33225 329.626 7.25591 334.29C12.1796 338.955 18.3989 341.028 25.914 341.028H69.7085C76.7053 341.028 82.6655 338.695 87.5892 334.031C92.5128 329.366 95.1042 323.665 95.1042 316.928C95.1042 309.413 92.772 303.193 87.8483 298.529C82.9246 293.864 76.9644 291.273 69.9677 291.273H25.914C18.3989 291.273 12.1796 293.605 7.25591 298.529C2.33225 302.934 0 309.153 0 316.928ZM45.8677 477.076C45.8677 502.212 54.9376 523.98 73.3365 542.379C91.7354 560.778 113.244 569.848 138.381 569.848H316.15C341.287 569.848 362.795 560.778 380.676 542.638C398.557 524.498 407.626 502.731 407.626 477.076C407.626 464.637 405.812 454.012 402.185 445.202C423.693 431.467 440.796 413.068 453.235 390.264C465.674 367.46 472.152 342.842 472.152 316.669C472.152 295.678 468.006 275.465 459.714 256.289C451.421 237.113 440.278 220.528 426.544 206.793C412.809 193.059 396.224 181.916 377.048 173.623C357.872 165.331 337.918 161.185 316.928 161.185C288.681 161.185 262.508 168.182 238.667 182.175C214.827 196.169 195.909 215.086 182.175 238.668C168.441 262.508 161.703 288.422 161.703 316.669V325.479C135.789 340.25 118.686 361.759 110.393 390.005C90.6988 396.224 75.1505 407.108 63.4892 422.916C51.8279 438.723 45.8677 456.863 45.8677 477.076ZM86.2935 110.134C86.2935 117.39 88.6257 123.35 93.0311 127.497L134.753 171.291C146.932 180.62 159.112 180.62 171.291 171.291C176.215 166.368 178.547 160.407 178.547 153.151C178.547 146.155 176.215 140.194 171.291 135.012L128.533 92.2537C123.091 87.33 116.872 84.7386 110.393 84.7386C103.138 84.7386 97.1773 87.0709 92.772 91.9945C88.3666 96.9182 86.2935 102.878 86.2935 110.134ZM97.1773 477.076C97.1773 466.192 100.546 456.863 107.543 449.089C114.54 441.315 123.35 436.909 133.975 435.873L150.042 433.8C153.411 433.8 155.225 431.726 155.225 427.839L157.557 413.328C159.371 398.297 165.59 385.859 176.474 376.011C187.358 365.905 200.056 360.981 214.827 360.981C229.857 360.981 243.073 365.905 253.957 376.011C265.1 386.118 271.578 398.557 273.392 413.328L275.465 430.172C277.02 434.059 279.093 436.132 281.685 436.132H315.891C327.034 436.132 336.622 440.278 344.915 448.311C353.207 456.345 357.094 465.933 357.094 477.335C357.094 488.996 352.948 498.844 344.915 507.136C336.881 515.429 327.034 519.575 315.891 519.575H138.381C126.719 519.575 116.872 515.429 109.098 507.136C101.064 498.844 97.1773 488.737 97.1773 477.076ZM211.717 311.486C213.531 283.24 224.415 259.399 244.628 239.963C264.581 220.787 288.941 210.94 316.928 210.94C345.692 210.94 370.31 221.305 390.523 241.777C410.736 262.249 420.843 287.386 420.843 316.669C420.843 334.808 416.437 351.652 407.626 367.201C398.816 382.749 386.895 395.188 371.865 404.776C356.576 392.078 338.954 385.859 319.26 385.859C311.745 363.055 298.27 345.174 279.352 331.699C260.435 318.223 238.927 311.486 215.086 311.486H211.717ZM291.791 84.7386C291.791 91.7354 294.382 97.9547 299.306 102.878C304.23 107.802 310.19 110.393 317.187 110.393C324.443 110.393 330.403 107.802 335.327 102.878C340.25 97.9547 342.842 91.9945 342.842 84.7386V24.1C342.842 17.3624 340.25 11.6613 335.327 6.99677C330.403 2.33226 324.443 0 317.187 0C310.19 0 304.23 2.33226 299.306 6.99677C294.382 11.6613 291.791 17.3624 291.791 24.1V84.7386ZM455.567 479.408C455.567 486.405 457.9 492.365 462.564 497.548L505.063 539.529C515.947 550.412 528.126 550.412 541.602 539.529C546.266 535.123 548.339 529.422 548.339 521.907C548.339 514.91 546.007 509.209 541.602 504.545L497.807 461.268C493.142 456.863 487.182 454.79 480.186 454.79C472.93 454.79 467.229 457.122 462.564 461.787C457.9 466.451 455.567 472.411 455.567 479.408ZM455.567 152.633C455.567 159.889 457.9 166.108 462.564 171.291C467.229 175.956 473.189 178.288 480.186 178.288C487.182 178.288 493.142 175.956 497.807 171.291L541.602 127.497C546.266 123.091 548.339 117.39 548.339 110.134C548.339 102.878 545.748 96.9182 540.824 92.2537C535.9 87.5892 529.94 84.9978 522.684 84.9978C515.947 84.9978 509.987 87.5892 505.063 92.5128L462.564 134.753C457.9 139.417 455.567 145.377 455.567 152.633ZM522.425 316.928C522.425 323.924 524.758 329.626 529.681 334.29C534.605 338.955 540.824 341.028 548.339 341.028H592.134C599.131 341.028 605.091 338.695 610.014 334.031C614.938 329.366 617.529 323.665 617.529 316.928C617.529 309.413 615.197 303.193 610.274 298.529C605.35 293.864 599.39 291.273 592.393 291.273H548.598C541.083 291.273 534.864 293.605 529.94 298.529C525.017 302.934 522.425 309.153 522.425 316.928Z" fill="black"/>
</svg>
